Coordinates
version=1
nRows=24
nColumns=24
inDegrees=yes

Units are S.I. units (second, meters, Newtons, ...)
Angles are in degrees.

endheader
time	pelvis_tilt	pelvis_list	pelvis_rotation	pelvis_tx	pelvis_ty	pelvis_tz	hip_flexion_r	hip_adduction_r	hip_rotation_r	knee_angle_r	ankle_angle_r	subtalar_angle_r	mtp_angle_r	hip_flexion_l	hip_adduction_l	hip_rotation_l	knee_angle_l	ankle_angle_l	subtalar_angle_l	mtp_angle_l	lumbar_extension	lumbar_bending	lumbar_rotation
      3.81500000	     -6.41724196	      0.70831183	    360.71264060	      0.26910933	      1.38949265	     -1.04563517	     14.84246592	      1.31440724	      1.16853233	    -10.62382000	     -3.69948913	     -9.56650875	      7.94023234	     18.29832973	      4.42626869	      5.12957850	    -53.32799868	     -3.05057929	     11.10200696	     38.85139516	     -6.20718874	      4.17796440	      9.54843428
      3.82000000	     -6.49664104	      0.79403936	    360.69846679	      0.27346122	      1.38981947	     -1.04531234	     14.60649150	      1.26875941	      1.31023594	    -10.52962997	     -3.59274604	     -9.74105716	      7.81355362	     19.01387092	      4.47340112	      5.01436295	    -53.32850892	     -2.49527349	     11.12371026	     38.22082105	     -6.19200953	      4.02266501	      9.58295368
      3.82500000	     -6.58165568	      0.89178632	    360.67178839	      0.27784362	      1.39013872	     -1.04496459	     14.37495404	      1.21449766	      1.46113081	    -10.43326417	     -3.48566270	     -9.92933757	      7.69475284	     19.70880809	      4.51839321	      4.86936167	    -53.24228696	     -1.99147334	     11.07259694	     37.68882536	     -6.16058085	      3.85693558	      9.61805213
      3.83000000	     -6.67916844	      0.98629738	    360.65134189	      0.28221733	      1.39041799	     -1.04464730	     14.15947288	      1.16014377	      1.61692576	    -10.34319557	     -3.37489292	    -10.12006333	      7.56989591	     20.40446668	      4.56122814	      4.73072342	    -53.10105708	     -1.50301589	     11.02540159	     37.14123264	     -6.11507493	      3.69396248	      9.65918516
      3.83500000	     -6.74140565	      1.09251209	    360.63245509	      0.28658714	      1.39072548	     -1.04433867	     13.90579168	      1.09171412	      1.77599457	    -10.25455517	     -3.25319307	    -10.29604294	      7.44278769	     21.03457463	      4.61375885	      4.59373275	    -52.87872480	     -1.04045915	     10.96113178	     36.61020563	     -6.11236222	      3.51629266	      9.70811983
      3.84000000	     -6.83263493	      1.20346055	    360.61989505	      0.29095050	      1.39099271	     -1.04404897	     13.68896203	      1.01426870	      1.93092797	    -10.17616287	     -3.12686919	    -10.46045518	      7.32174367	     21.67774756	      4.67104619	      4.46022591	    -52.58756094	     -0.62134199	     10.86445384	     36.16647024	     -6.07509540	      3.33488383	      9.73904993
      3.84500000	     -6.92338950	      1.31258533	    360.61783341	      0.29530798	      1.39123153	     -1.04379867	     13.47642479	      0.93314993	      2.07493081	    -10.10980981	     -2.98853900	    -10.61347755	      7.19376312	     22.30178323	      4.73202067	      4.34484364	    -52.23602885	     -0.21971556	     10.76658825	     35.73297600	     -6.03923496	      3.16017516	      9.77859208
      3.85000000	     -6.98442993	      1.43806478	    360.61890602	      0.29967155	      1.39150456	     -1.04356088	     13.22894611	      0.83178666	      2.22429673	    -10.04006023	     -2.84187661	    -10.75231110	      7.07323740	     22.86146028	      4.81134523	      4.23514331	    -51.79878138	      0.13964895	     10.64765496	     35.34161456	     -6.03579241	      2.96493364	      9.81188787
      3.85500000	     -7.06222245	      1.57192748	    360.63244492	      0.30403305	      1.39173429	     -1.04335167	     13.00526591	      0.71570241	      2.35892352	     -9.98314947	     -2.67693014	    -10.87584903	      6.98286221	     23.41912232	      4.90516475	      4.14127854	    -51.29465263	      0.44892399	     10.52186888	     35.05184224	     -6.01571864	      2.76321123	      9.81366698
      3.86000000	     -7.12419741	      1.71047809	    360.65841247	      0.30838401	      1.39195748	     -1.04315710	     12.77507580	      0.59096831	      2.43242730	     -9.94844953	     -2.50745360	    -11.00635305	      6.90142739	     23.93686914	      5.00648382	      4.05758891	    -50.72438657	      0.73294746	     10.39094070	     34.80443564	     -6.01542306	      2.55553371	      9.81195112
      3.86500000	     -7.21110948	      1.80905371	    360.69605035	      0.31272180	      1.39211977	     -1.04304661	     12.56967551	      0.50232513	      2.53503043	     -9.91235496	     -2.32226085	    -11.11050136	      6.65743097	     24.47477943	      5.08355347	      4.01754424	    -50.14023569	      1.09207325	     10.33803532	     34.23576983	     -5.98080859	      2.38893009	      9.88471636
      3.87000000	     -7.26914468	      1.94010828	    360.73361703	      0.31707586	      1.39230005	     -1.04291189	     12.33671880	      0.37758249	      2.60773261	     -9.88184339	     -2.14660847	    -11.20762535	      6.61698078	     24.94539688	      5.18866621	      3.96607910	    -49.45160098	      1.31219824	     10.18492156	     34.08720810	     -5.98803461	      2.20056427	      9.84847375
      3.87500000	     -7.35408419	      2.05834448	    360.77109473	      0.32141397	      1.39242280	     -1.04284557	     12.13992515	      0.26250355	      2.70754599	     -9.86496375	     -1.96057613	    -11.29320509	      6.48097025	     25.43156362	      5.29670773	      3.94469332	    -48.72862703	      1.53618779	      9.98932890	     33.76793983	     -5.96337259	      2.02657740	      9.87642981
      3.88000000	     -7.41710559	      2.17501626	    360.83161584	      0.32576067	      1.39254287	     -1.04276046	     11.92241217	      0.14716469	      2.73356773	     -9.85844821	     -1.76723816	    -11.39184262	      6.39360866	     25.87137472	      5.40143867	      3.93546515	    -47.94239906	      1.72161422	      9.87478321	     33.56081835	     -5.96202853	      1.84182678	      9.85916766
      3.88500000	     -7.47864698	      2.27297611	    360.89734701	      0.33009509	      1.39262545	     -1.04276334	     11.70546572	      0.04473580	      2.76361185	     -9.86057650	     -1.52358301	    -11.42081196	      6.11760514	     26.29413438	      5.50645117	      3.96634591	    -47.12791629	      1.95549851	      9.76428814	     33.10863165	     -5.96522602	      1.68719956	      9.89126027
      3.89000000	     -7.54765431	      2.38557518	    360.95287464	      0.33443925	      1.39268198	     -1.04272780	     11.50307210	     -0.06872892	      2.81111396	     -9.86808094	     -1.33120666	    -11.50724435	      6.05544153	     26.69646310	      5.61628885	      3.98234808	    -46.23379330	      2.08482475	      9.58722819	     32.94885841	     -5.96490419	      1.52517043	      9.85524765
      3.89500000	     -7.62023032	      2.48434238	    361.02320932	      0.33878750	      1.39270192	     -1.04272027	     11.30582023	     -0.17093339	      2.82020477	     -9.88066733	     -1.13099014	    -11.60009417	      5.97737185	     27.08531068	      5.71885010	      4.02037189	    -45.29582009	      2.18213780	      9.42652734	     32.76987681	     -5.95669743	      1.36911331	      9.83579716
      3.90000000	     -7.67247474	      2.57772004	    361.09149286	      0.34312229	      1.39271232	     -1.04276056	     11.09038595	     -0.27044935	      2.83549801	     -9.90117497	     -0.91274954	    -11.65061081	      5.83570374	     27.42717772	      5.82686426	      4.08694966	    -44.30584326	      2.29030005	      9.21621966	     32.52227628	     -5.97742593	      1.22666730	      9.83336311
      3.90500000	     -7.75272082	      2.66502750	    361.16624889	      0.34748491	      1.39266814	     -1.04277258	     10.90630499	     -0.36106856	      2.82640605	     -9.92445671	     -0.70530436	    -11.74014796	      5.75532906	     27.77932492	      5.91931516	      4.14773115	    -43.26529184	      2.33579071	      9.08392224	     32.35514487	     -5.96072076	      1.08472697	      9.80904428
      3.91000000	     -7.83317387	      2.74127297	    361.24651136	      0.35181205	      1.39257836	     -1.04283233	     10.73238533	     -0.44372773	      2.81192015	     -9.96293663	     -0.51823135	    -11.83392660	      5.69167980	     28.11253292	      6.01129686	      4.24502628	    -42.17959922	      2.40508446	      8.94749079	     32.20874189	     -5.95857592	      0.95830388	      9.79374615
      3.91500000	     -7.88354817	      2.81743126	    361.30628503	      0.35619804	      1.39251822	     -1.04286753	     10.51250304	     -0.52080942	      2.82419285	     -9.98093401	     -0.28108019	    -11.88613270	      5.56332747	     28.37535554	      6.08997034	      4.31778769	    -41.02353994	      2.37393409	      8.68274590	     31.96817691	     -5.97324102	      0.83478046	      9.78162175
      3.92000000	     -7.95083509	      2.88481869	    361.37765896	      0.36058017	      1.39240492	     -1.04293240	     10.31760128	     -0.59231334	      2.81202232	    -10.01299251	     -0.05438681	    -11.93599435	      5.43584473	     28.63485542	      6.16560927	      4.42234938	    -39.81967599	      2.36156590	      8.48152382	     31.77179723	     -5.97500021	      0.71736132	      9.77410762
      3.92500000	     -8.02775480	      2.95378909	    361.45048225	      0.36492123	      1.39222900	     -1.04300913	     10.14871809	     -0.66578192	      2.78357021	    -10.06866036	      0.14796463	    -12.01337690	      5.36121064	     28.88452051	      6.24106346	      4.53693918	    -38.56672400	      2.36142011	      8.33461460	     31.62957341	     -5.97875145	      0.60138893	      9.76756078
      3.93000000	     -8.02645606	      3.00989689	    361.51876260	      0.36933333	      1.39214784	     -1.04311306	      9.86727210	     -0.72700301	      2.74690392	    -10.08643509	      0.46101082	    -11.94013873	      5.06418737	     29.00345796	      6.30411149	      4.66741729	    -37.23374322	      2.27315865	      8.01784825	     31.42473577	     -6.05480832	      0.49590451	      9.79331602
